<svg width="19" height="21" viewBox="0 0 19 21" fill="none" xmlns="http://www.w3.org/2000/svg">
  <path
    d="M16.6179 18.1193C15.741 19.4034 14.8113 20.6565 13.3956 20.6772C11.9799 20.7083 11.5256 19.8591 9.91971 19.8591C8.30327 19.8591 7.80672 20.6565 6.46497 20.7083C5.08096 20.7601 4.03503 19.3413 3.14758 18.0882C1.34097 15.5302 -0.0430415 10.8182 1.81639 7.64925C2.73554 6.07512 4.38368 5.08094 6.16915 5.04987C7.52147 5.02916 8.81039 5.95085 9.64502 5.95085C10.4691 5.95085 12.0327 4.84275 13.6703 5.00844C14.357 5.03951 16.2798 5.2777 17.5159 7.05895C17.4208 7.12109 15.2233 8.38453 15.2445 11.0046C15.2761 14.1322 18.0442 15.1781 18.0759 15.1885C18.0442 15.261 17.6321 16.6798 16.6179 18.1193ZM10.5853 1.54951C11.3565 0.689952 12.6349 0.0375181 13.6914 -0.00390625C13.8287 1.20776 13.3322 2.42978 12.5926 3.29969C11.8637 4.17996 10.6593 4.86346 9.47598 4.77025C9.31751 3.5793 9.90915 2.33657 10.5853 1.54951Z"
    fill="white" />
</svg>