<svg width="28" height="27" viewBox="0 0 28 27" fill="none" xmlns="http://www.w3.org/2000/svg">
  <path
    d="M13.9357 0.128906C6.54607 0.128906 0.5 6.18577 0.5 13.6456C0.5 20.3904 5.41747 25.9886 11.8397 27.0004V17.5576H8.42707V13.6456H11.8397V10.6643C11.8397 7.27844 13.8417 5.41686 16.9184 5.41686C18.3829 5.41686 19.9146 5.67317 19.9146 5.67317V9.00512H18.2217C16.5557 9.00512 16.0317 10.0438 16.0317 11.1095V13.6456H19.7668L19.1622 17.5576H16.0317V27.0004C19.1977 26.4983 22.0807 24.8764 24.1602 22.4274C26.2397 19.9784 27.3786 16.8637 27.3714 13.6456C27.3714 6.18577 21.3253 0.128906 13.9357 0.128906Z"
    fill="#1E1432" />
</svg>