<svg width="28" height="27" viewBox="0 0 28 27" fill="none" xmlns="http://www.w3.org/2000/svg">
  <path
    d="M15.4458 0.130559C16.4262 0.126797 17.4066 0.136651 18.3868 0.160117L18.6474 0.169522C18.9484 0.18027 19.2453 0.193705 19.604 0.209827C21.0335 0.277004 22.0089 0.502716 22.8647 0.834568C23.7514 1.17582 24.4984 1.638 25.2454 2.385C25.9284 3.05623 26.457 3.86818 26.7944 4.76438C27.1263 5.62021 27.352 6.59695 27.4191 8.02647C27.4353 8.38384 27.4487 8.68211 27.4594 8.98306L27.4675 9.2437C27.4914 10.2234 27.5017 11.2034 27.4984 12.1833L27.4998 13.1856V14.9456C27.5031 15.9261 27.4928 16.9065 27.4689 17.8866L27.4608 18.1473C27.45 18.4482 27.4366 18.7451 27.4205 19.1038C27.3533 20.5334 27.1249 21.5088 26.7944 22.3646C26.4581 23.2617 25.9293 24.0744 25.2454 24.7453C24.5736 25.4283 23.7612 25.9568 22.8647 26.2944C22.0089 26.6263 21.0335 26.852 19.604 26.9191C19.2453 26.9353 18.9484 26.9487 18.6474 26.9594L18.3868 26.9675C17.4066 26.9914 16.4262 27.0017 15.4458 26.9984L14.4436 26.9998H12.6849C11.7045 27.0031 10.7241 26.9928 9.74401 26.9688L9.48337 26.9608C9.16444 26.9492 8.84557 26.9358 8.52679 26.9205C7.09731 26.8533 6.12192 26.6249 5.26477 26.2944C4.36823 25.9576 3.55615 25.4289 2.88542 24.7453C2.20164 24.0739 1.67254 23.2615 1.33502 22.3646C1.00318 21.5088 0.777467 20.5334 0.710292 19.1038C0.695329 18.785 0.681894 18.4662 0.669987 18.1473L0.663269 17.8866C0.6385 16.9065 0.627303 15.9261 0.629681 14.9456V12.1833C0.625932 11.2034 0.635785 10.2234 0.659239 9.2437L0.668643 8.98306C0.679391 8.68211 0.692826 8.38384 0.708948 8.02647C0.776123 6.59561 1.00183 5.62155 1.33368 4.76438C1.6714 3.86774 2.20153 3.05602 2.88677 2.38634C3.55703 1.70215 4.3686 1.17256 5.26477 0.834568C6.12192 0.502716 7.09596 0.277004 8.52679 0.209827L9.48337 0.169522L9.74401 0.162804C10.7237 0.138047 11.7036 0.12685 12.6836 0.129216L15.4458 0.130559ZM14.0647 6.84819C13.1747 6.8356 12.291 7.00004 11.465 7.33195C10.639 7.66386 9.88729 8.15662 9.25342 8.7816C8.61956 9.40658 8.11622 10.1513 7.77267 10.9725C7.42912 11.7937 7.2522 12.675 7.2522 13.5652C7.2522 14.4553 7.42912 15.3366 7.77267 16.1578C8.11622 16.979 8.61956 17.7237 9.25342 18.3487C9.88729 18.9737 10.639 19.4664 11.465 19.7984C12.291 20.1303 13.1747 20.2947 14.0647 20.2821C15.8463 20.2821 17.5549 19.5744 18.8147 18.3146C20.0745 17.0548 20.7822 15.3461 20.7822 13.5645C20.7822 11.7829 20.0745 10.0742 18.8147 8.8144C17.5549 7.5546 15.8463 6.84819 14.0647 6.84819ZM14.0647 9.53525C14.6001 9.52538 15.1321 9.6223 15.6296 9.82035C16.1271 10.0184 16.5802 10.3136 16.9624 10.6887C17.3445 11.0638 17.6481 11.5113 17.8553 12.0051C18.0626 12.4989 18.1694 13.029 18.1695 13.5645C18.1696 14.1 18.063 14.6301 17.8559 15.1239C17.6488 15.6178 17.3453 16.0654 16.9633 16.4406C16.5813 16.8159 16.1283 17.1112 15.6309 17.3094C15.1334 17.5077 14.6015 17.6047 14.0661 17.5951C12.9971 17.5951 11.9719 17.1704 11.2161 16.4145C10.4602 15.6587 10.0356 14.6335 10.0356 13.5645C10.0356 12.4955 10.4602 11.4703 11.2161 10.7144C11.9719 9.95855 12.9971 9.5339 14.0661 9.5339L14.0647 9.53525ZM21.1181 4.8329C20.6847 4.85025 20.2748 5.03463 19.9743 5.34743C19.6737 5.66024 19.5059 6.07719 19.5059 6.51097C19.5059 6.94475 19.6737 7.3617 19.9743 7.6745C20.2748 7.9873 20.6847 8.17169 21.1181 8.18903C21.5635 8.18903 21.9907 8.0121 22.3056 7.69715C22.6206 7.38219 22.7975 6.95503 22.7975 6.50962C22.7975 6.06422 22.6206 5.63705 22.3056 5.3221C21.9907 5.00715 21.5635 4.83022 21.1181 4.83022V4.8329Z"
    fill="#1E1432" />
</svg>