<svg width="52" height="49" viewBox="0 0 52 49" fill="none" xmlns="http://www.w3.org/2000/svg">
  <path
    d="M45.8591 7.39711C50.2527 12.3865 52.2345 17.7679 51.2541 23.8719C50.2753 29.9744 46.509 35.7758 40.4979 40.941C34.3819 46.1973 28.1976 48.8835 21.945 48.9965C15.6923 49.1096 10.0019 46.4524 5.6084 41.4615C1.1656 36.4156 -0.189562 31.0706 0.81309 24.9949C1.81574 18.9191 5.37506 13.2515 11.4895 7.99527C17.5514 2.78455 23.6881 0.120313 29.8883 0.00413324C36.0949 -0.115182 41.4163 2.34967 45.8591 7.39711Z"
    fill="#9852FC" />
  <path d="M26 16L18.5 23.5L19.5575 24.5575L25.25 18.8725V34H26.75V18.8725L32.4425 24.5575L33.5 23.5L26 16Z"
    fill="#E8E1FF" />
</svg>