<svg width="270" height="59" viewBox="0 0 270 59" fill="none" xmlns="http://www.w3.org/2000/svg">
<path d="M263.898 16.6311C262.211 16.6311 260.837 16.0817 259.804 14.9961C258.758 13.8973 258.248 12.5632 258.248 10.9805C258.248 9.35855 258.771 8.0113 259.83 6.92565C260.89 5.84 262.25 5.30371 263.898 5.30371C265.559 5.30371 266.907 5.85308 267.966 6.93873C269.026 8.03746 269.549 9.38471 269.549 10.9805C269.549 12.5632 269.026 13.9104 267.966 14.9961C266.907 16.0817 265.559 16.6311 263.898 16.6311ZM263.898 15.8332C265.35 15.8332 266.514 15.3623 267.391 14.4336C268.267 13.5049 268.712 12.3408 268.712 10.9674C268.712 9.60707 268.267 8.44294 267.364 7.48809C266.462 6.53324 265.311 6.04928 263.898 6.04928C262.486 6.04928 261.334 6.53324 260.445 7.50117C259.556 8.4691 259.111 9.62015 259.111 10.9674C259.111 12.3277 259.556 13.4919 260.432 14.4206C261.308 15.3754 262.459 15.8332 263.898 15.8332ZM261.766 14.0936V7.54041H264.552C265.167 7.54041 265.677 7.74969 266.083 8.15518C266.488 8.56066 266.684 9.07079 266.684 9.67247C266.684 10.1303 266.553 10.5358 266.292 10.8889C266.03 11.2421 265.677 11.4775 265.259 11.6214L266.841 14.1066H265.69L264.173 11.7522H262.734V14.1066H261.766V14.0936ZM262.747 10.8235H264.461C264.84 10.8235 265.141 10.7189 265.376 10.4965C265.612 10.2742 265.716 9.99947 265.716 9.64631C265.716 9.30623 265.612 9.03154 265.402 8.80918C265.193 8.5999 264.905 8.49526 264.565 8.49526H262.747V10.8235Z" fill="#9852FC"/>
<path d="M19.8932 46.7867L0.966309 11.8628H13.9287L30.3704 42.3264H31.116L47.8716 11.8628H52.0834L32.908 46.7867H19.8932Z" fill="#9852FC"/>
<path d="M105.471 28.6063H62.9737C62.8952 28.7371 62.8429 28.9725 62.8429 29.3518C62.8429 34.113 64.2425 37.9062 67.0678 40.7315C69.88 43.5699 73.6209 44.9826 78.3036 44.9826C81.9399 44.9826 85.0399 44.1193 87.6036 42.4058C90.1673 40.6923 91.9462 38.2986 92.9403 35.2379H104.359C102.79 39.1619 99.7419 42.2227 95.2031 44.4201C90.6774 46.6176 85.0791 47.7033 78.4213 47.7033C70.1547 47.7033 63.5492 46.029 58.6311 42.6805C53.713 39.332 51.2539 34.8455 51.2539 29.221C51.2539 23.5966 53.713 19.1363 58.6311 15.827C63.5492 12.5177 70.1547 10.8696 78.4213 10.8696C86.531 10.8696 93.0057 12.4523 97.8715 15.6177C102.737 18.7831 105.262 23.1126 105.471 28.6063ZM63.2222 25.8202H93.5027C92.8356 22.0139 91.1744 19.0316 88.5061 16.8603C85.8377 14.689 82.4369 13.6034 78.3036 13.6034C74.2488 13.6034 70.8872 14.7021 68.2188 16.8865C65.5505 19.0839 63.8893 22.0531 63.2222 25.8202Z" fill="#9852FC"/>
<path d="M259.357 28.6063H216.86C216.781 28.7371 216.729 28.9725 216.729 29.3518C216.729 34.113 218.129 37.9062 220.954 40.7315C223.766 43.5699 227.507 44.9826 232.19 44.9826C235.826 44.9826 238.926 44.1193 241.49 42.4058C244.054 40.6923 245.832 38.2986 246.826 35.2379H258.245C256.676 39.1619 253.628 42.2227 249.089 44.4201C244.564 46.6176 238.965 47.7033 232.308 47.7033C224.041 47.7033 217.435 46.029 212.517 42.6805C207.599 39.332 205.14 34.8455 205.14 29.221C205.14 23.5966 207.599 19.1363 212.517 15.827C217.435 12.5177 224.041 10.8696 232.308 10.8696C240.417 10.8696 246.892 12.4523 251.758 15.6177C256.61 18.7831 259.148 23.1126 259.357 28.6063ZM217.108 25.8202H247.389C246.722 22.0139 245.061 19.0316 242.392 16.8603C239.724 14.689 236.323 13.6034 232.19 13.6034C228.135 13.6034 224.773 14.7021 222.105 16.8865C219.437 19.0839 217.762 22.0531 217.108 25.8202Z" fill="#9852FC"/>
<path d="M145.551 13.6771C145.08 13.4285 144.596 13.2193 144.099 13.0361C142.071 12.2121 139.861 11.7412 137.546 11.7412C131.097 11.7412 125.46 15.2205 122.399 20.4002V12.029H110.797V46.966H122.399V38.3069V27.3589C122.399 23.5526 125.198 20.1779 128.991 19.8247C129.017 19.8247 129.044 19.8247 129.057 19.8247C132.34 19.537 135.492 20.4656 138.501 22.5454L145.564 13.7032C145.564 13.6901 145.551 13.6771 145.551 13.6771Z" fill="#9852FC"/>
<path d="M199.784 26.5526C199.784 22.0008 197.573 18.3383 193.152 15.5392C188.731 12.7531 182.727 11.1835 175.154 10.8565C177.718 6.93246 180.818 4.95737 184.454 4.95737C188.718 4.95737 191.36 7.25947 192.394 11.8506L200.948 7.32487C198.254 2.44598 193.767 0 187.489 0C180.543 0 175.416 3.62319 172.106 10.8565C163.997 10.935 157.548 12.4 152.748 15.2253C147.947 18.0636 145.554 21.8307 145.554 26.5526C145.554 31.3923 148 35.2248 152.879 38.0631C157.757 40.9015 164.337 42.3142 172.603 42.3142C173.597 42.3142 174.605 42.3404 175.638 42.3796C176.671 42.4188 178.123 42.5365 179.981 42.7197C181.838 42.9028 183.473 43.1513 184.886 43.4652C186.285 43.7792 187.567 44.2631 188.705 44.9171C189.843 45.5842 190.471 46.369 190.602 47.2716C190.68 48.0956 190.536 48.7888 190.17 49.3513C189.804 49.9137 189.281 50.3192 188.613 50.5547C187.946 50.8032 187.358 50.9732 186.848 51.0779C186.324 51.1825 185.84 51.2348 185.396 51.2348C181.916 51.2348 176.776 50.45 169.974 48.8804C163.173 47.3108 158.111 46.526 154.801 46.526C153.232 46.526 151.845 46.6045 150.642 46.7745V58.6905C152.879 57.1994 156.737 56.4538 162.244 56.4538C165.017 56.4538 168.98 56.6762 174.16 57.134C179.327 57.5918 182.675 57.8141 184.205 57.8141C188.129 57.8141 191.19 57.1078 193.362 55.7082C195.533 54.2956 196.618 52.3336 196.618 49.8091C196.618 45.2965 192.838 42.3273 185.265 40.8754C189.856 39.672 193.427 37.8408 195.964 35.3556C198.515 32.8834 199.784 29.9404 199.784 26.5526ZM183.996 36.0096C181.21 38.3509 177.456 39.515 172.734 39.515C167.973 39.515 164.193 38.3509 161.381 36.0096C158.568 33.6682 157.156 30.5159 157.156 26.5526C157.156 22.6286 158.568 19.4763 161.381 17.1219C164.193 14.7675 167.973 13.5902 172.734 13.5902C177.404 13.5902 181.158 14.7675 183.97 17.1219C186.782 19.4763 188.182 22.6286 188.182 26.5526C188.182 30.529 186.795 33.6813 183.996 36.0096Z" fill="#9852FC"/>
</svg>
